<svg height="512" viewBox="0 0 1288 1024" width="512" xmlns="http://www.w3.org/2000/svg"><path d="m1238.71 363.355h-1189.161c-27.365 0-49.548-22.184-49.548-49.548s22.184-49.548 49.548-49.548h1189.161c27.365 0 49.548 22.184 49.548 49.548s-22.184 49.548-49.548 49.548z"/><path d="m483.592 627.613h-169.786c-27.365 0-49.548-22.184-49.548-49.548s22.184-49.548 49.548-49.548h169.786c27.365 0 49.548 22.184 49.548 49.548s-22.184 49.548-49.548 49.548z"/><path d="m1040.516 1024h-792.774c-136.764-.15-247.592-110.978-247.742-247.728v-528.53c.15-136.764 110.978-247.592 247.728-247.742h792.789c136.764.15 247.592 110.978 247.742 247.728v528.53c-.15 136.764-110.978 247.592-247.728 247.742h-.014zm-792.774-924.903c-82.049.113-148.532 66.596-148.645 148.634v528.527c.113 82.049 66.596 148.532 148.634 148.645h792.785c82.049-.113 148.532-66.596 148.645-148.634v-528.527c-.113-82.049-66.596-148.532-148.634-148.645h-.011z"/></svg>