<svg id="Layer_1" enable-background="new 0 0 32 32" height="512" viewBox="0 0 32 32" width="512" xmlns="http://www.w3.org/2000/svg"><path d="m24.8701496 15.8141918v-1.628479c0-4.5410767-3.4375-8.289917-7.8701172-8.7930908v-1.0223389c0-.5522461-.4477539-1-1-1s-1 .4477539-1 1v1.0186157c-4.4204102.4918823-7.8701172 4.2472534-7.8701172 8.796814v9.4853516h-.8691406c-.5522461 0-1 .4477539-1 1s.4477539 1 1 1h4.4966431c.4702148 2.4607544 2.631897 4.3286133 5.227478 4.3286133 1.5808105 0 2.9876099-.7056885 3.9643555-1.8027954.6396484.2040405 1.3199463.315979 2.0263672.315979 3.6855469 0 6.6835938-2.9980469 6.6835938-6.6835938-.0000001-2.6477051-1.5511475-4.9336548-3.7890626-6.0150757zm-15.7402344-1.628479c0-3.7797852 3.0751953-6.8549805 6.8852539-6.8549805 3.7797852 0 6.8549805 3.0751953 6.8549805 6.8549805v1.0269775c-.293396-.0394897-.5905151-.0670166-.8945312-.0670166-3.6855469 0-6.6835938 2.9980469-6.6835938 6.6835938 0 .6393433.0955811 1.2558594.2639771 1.8417969h-6.4260865zm7.385437 11.4853516c.4281616.6066895.954895 1.1370239 1.5563965 1.5720215-.5727539.4656982-1.2928467.7565918-2.086853.7565918-1.4847412 0-2.7306519-.9837036-3.1582031-2.3286133zm.7766724-3.8417969c0-2.5825195 2.1005859-4.6835938 4.6835938-4.6835938s4.6835938 2.1010742 4.6835938 4.6835938-2.1005859 4.6835938-4.6835938 4.6835938-4.6835938-2.1010743-4.6835938-4.6835938z"/><path d="m21.9756184 22.8292675h1.8798828c.5527344 0 1-.4477539 1-1s-.4472656-1-1-1h-.8798828v-.9628906c0-.5522461-.4472656-1-1-1s-1 .4477539-1 1v1.9628906c0 .5522461.4472656 1 1 1z"/><path d="m29.056673 9.3614941c-.9101562-2.8964844-2.8037109-5.4482422-5.3320312-7.1860352-.453125-.3110353-1.0761719-.1972657-1.390625.2578125-.3125.4550781-.1972656 1.0776367.2578125 1.390625 2.1611328 1.4853516 3.7792969 3.6650391 4.5566406 6.137207.1347656.4272461.5283203.7006836.9541016.7006836.0986328 0 .2001953-.0151367.2998047-.0463867.5273437-.1655273.8193359-.7270508.6542968-1.2539062z"/><path d="m9.3852863 3.8356152c.4560547-.3115235.5732422-.9335938.2617188-1.3896485-.3110352-.4560548-.9335938-.572754-1.3896485-.2617187-2.5249023 1.7241211-4.4121091 4.2739258-5.3149411 7.180664-.1635742.5273438.1308594 1.0874023.6586914 1.2514648.0986328.0307617.1982422.0454102.296875.0454102.4262693 0 .8212888-.2753906.9545896-.7041016.769043-2.4770507 2.3789062-4.6513671 4.5327148-6.1220702z"/></svg>