<?xml version="1.0" encoding="iso-8859-1"?>
<!-- Uploaded to: SVG Repo, www.svgrepo.com, Generator: SVG Repo Mixer Tools -->
<svg fill="#000000" height="800px" width="800px" version="1.1" id="Layer_1" xmlns="http://www.w3.org/2000/svg" xmlns:xlink="http://www.w3.org/1999/xlink" 
	 viewBox="0 0 486.4 486.4" xml:space="preserve">
<g>
	<g>
		<g>
			<path d="M17.032,455.933l-14.25,14.25c-3.71,3.71-3.71,9.725,0,13.435C4.638,485.473,7.07,486.4,9.5,486.4
				c2.431,0,4.863-0.927,6.717-2.782l14.25-14.25c3.71-3.71,3.71-9.725,0-13.435C26.758,452.223,20.743,452.223,17.032,455.933z"/>
			<path d="M107.593,365.373l-64.91,64.91c-3.71,3.71-3.71,9.725,0,13.435c1.855,1.855,4.287,2.782,6.718,2.782
				c2.431,0,4.863-0.927,6.717-2.782l64.91-64.91c3.71-3.71,3.71-9.725,0-13.435C117.318,361.663,111.303,361.663,107.593,365.373z"
				/>
			<path d="M483.619,90.073l-23.807-23.807l-39.677-39.677L396.328,2.783c-3.71-3.71-9.725-3.71-13.435,0
				c-3.71,3.71-3.71,9.725,0,13.435l17.089,17.089l-54.81,54.81l-8.36-8.36c-1.782-1.781-4.198-2.782-6.718-2.782
				c-2.52,0-4.936,1.001-6.718,2.782L160.188,242.946l-61.384,61.385c-3.71,3.71-3.71,9.725,0,13.435l69.831,69.831
				c1.855,1.855,4.287,2.783,6.718,2.783c2.431,0,4.863-0.928,6.718-2.783l136.597-136.596l87.977-87.977
				c1.782-1.782,2.783-4.198,2.783-6.718s-1.001-4.936-2.782-6.717l-8.36-8.36l54.81-54.81l17.089,17.089
				c1.855,1.855,4.287,2.782,6.718,2.782c2.431,0,4.863-0.927,6.718-2.782C487.328,99.798,487.328,93.783,483.619,90.073z
				 M175.352,367.446l-56.397-56.397l32.591-32.591l17.882,17.882c1.855,1.855,4.287,2.782,6.718,2.782
				c2.431,0,4.863-0.927,6.718-2.782c3.71-3.71,3.71-9.725,0-13.435l-17.882-17.882l6.351-6.351
				c7.656-1.037,15.277-2.39,22.795-4.179c7.826-1.862,15.65-4.17,22.923-7.652c3.98-1.906,7.915-4.2,11.084-7.308
				c2.237-2.194,4.183-4.212,5.875-6.063c5.944,9.73,16.049,20.18,32.03,20.18c13.719,0,23.872-5.468,30.658-11.042
				c0.418,0.587,0.865,1.171,1.326,1.753c0.062,0.078,0.116,0.158,0.178,0.236L175.352,367.446z M311.792,231.007
				c-0.991-1.489-1.846-3.069-2.578-4.701c-0.616-1.374-0.996-2.852-1.628-4.213c-1.363-2.946-4.143-5.049-7.425-5.455
				c-3.757-0.468-7.405,1.307-9.328,4.564c-0.04,0.065-0.194,0.31-0.456,0.683c-1.862,2.626-9.993,12.765-24.339,12.765
				c-14.618,0-20.787-22.175-20.84-22.367c-1.275-4.847-5.861-8.32-10.918-7.434c-3.594,0.63-6.419,3.034-7.26,6.691
				c-2.56,4.787-6.723,8.923-10.505,12.749c-5.655,5.72-13.434,8.108-21.029,10.229l57.634-57.634l17.882,17.882
				c1.855,1.855,4.286,2.783,6.718,2.783c2.431,0,4.863-0.928,6.717-2.782c3.71-3.71,3.71-9.725,0-13.435l-17.882-17.883
				l63.539-63.539l8.355,8.355c0.002,0.002,0.003,0.003,0.004,0.005l39.677,39.677c0.002,0.002,0.003,0.003,0.005,0.004l8.355,8.355
				L311.792,231.007z M384.849,127.794l-26.242-26.242l54.81-54.81l26.242,26.242L384.849,127.794z"/>
		</g>
	</g>
</g>
</svg>