<svg xmlns="http://www.w3.org/2000/svg" version="1.1" xmlns:xlink="http://www.w3.org/1999/xlink" width="512" height="512" x="0" y="0" viewBox="0 0 32 32" style="enable-background:new 0 0 512 512" xml:space="preserve" class=""><g transform="matrix(1.03,0,0,1.03,-0.4800000000000004,-0.4800000000000004)"><path d="M16 30a14 14 0 1 1 14-14 14 14 0 0 1-14 14zm0-26a12 12 0 1 0 12 12A12 12 0 0 0 16 4z" fill="#353b43" opacity="1" data-original="#000000" class=""></path><path d="M21 21a1 1 0 0 1-.62-.22l-5-4A1 1 0 0 1 15 16V8a1 1 0 0 1 2 0v7.52l4.62 3.7a1 1 0 0 1 .16 1.4A1 1 0 0 1 21 21z" fill="#353b43" opacity="1" data-original="#000000" class=""></path></g></svg>