<svg xmlns="http://www.w3.org/2000/svg" version="1.1" xmlns:xlink="http://www.w3.org/1999/xlink" width="512" height="512" x="0" y="0" viewBox="0 0 682.667 682.667" style="enable-background:new 0 0 512 512" xml:space="preserve" class=""><g transform="matrix(0.9300000000000003,0,0,0.9300000000000003,23.892900590896488,23.89341649055467)"><defs style="stroke-width: 21px;" stroke-width="21"><clipPath id="a" clipPathUnits="userSpaceOnUse" style="stroke-width: 21px;" stroke-width="21"><path d="M0 512h512V0H0Z" fill="#353b43" opacity="1" data-original="#000000" style="stroke-width: 21px;" stroke-width="21"></path></clipPath></defs><g clip-path="url(#a)" transform="matrix(1.33333 0 0 -1.33333 0 682.667)" style="stroke-width: 21px;" stroke-width="21"><path d="M0 0h422a9 9 0 0 1 9 9v78.099a9 9 0 0 1-9 9H0a9 9 0 0 1-9-9V9a9 9 0 0 1 9-9Z" style="stroke-width: 21px; stroke-linecap: round; stroke-linejoin: round; stroke-miterlimit: 10; stroke-dasharray: none; stroke-opacity: 1;" transform="translate(18.992 325.901)" fill="none" stroke="#353b43" stroke-width="21" stroke-linecap="round" stroke-linejoin="round" stroke-miterlimit="10" stroke-dasharray="none" stroke-opacity="" data-original="#000000" opacity="1" class=""></path><path d="M0 0h-207.829c-11.046 0-20 8.954-20 20v255.901h375.658v-48.318" style="stroke-width: 21px; stroke-linecap: round; stroke-linejoin: round; stroke-miterlimit: 10; stroke-dasharray: none; stroke-opacity: 1;" transform="translate(269.992 50)" fill="none" stroke="#353b43" stroke-width="21" stroke-linecap="round" stroke-linejoin="round" stroke-miterlimit="10" stroke-dasharray="none" stroke-opacity="" data-original="#000000" opacity="1" class=""></path><path d="M0 0v103.516" style="stroke-width: 21px; stroke-linecap: round; stroke-linejoin: round; stroke-miterlimit: 10; stroke-dasharray: none; stroke-opacity: 1;" transform="translate(189.992 50)" fill="none" stroke="#353b43" stroke-width="21" stroke-linecap="round" stroke-linejoin="round" stroke-miterlimit="10" stroke-dasharray="none" stroke-opacity="" data-original="#000000" opacity="1" class=""></path><path d="M0 0v82.385h80V-5.516" style="stroke-width: 21px; stroke-linecap: round; stroke-linejoin: round; stroke-miterlimit: 10; stroke-dasharray: none; stroke-opacity: 1;" transform="translate(189.992 243.516)" fill="none" stroke="#353b43" stroke-width="21" stroke-linecap="round" stroke-linejoin="round" stroke-miterlimit="10" stroke-dasharray="none" stroke-opacity="" data-original="#000000" opacity="1" class=""></path><path d="M189.992 325.901h80V422h-80z" style="stroke-width: 21px; stroke-linecap: round; stroke-linejoin: round; stroke-miterlimit: 10; stroke-dasharray: none; stroke-opacity: 1;" fill="none" stroke="#353b43" stroke-width="21" stroke-linecap="round" stroke-linejoin="round" stroke-miterlimit="10" stroke-dasharray="none" stroke-opacity="" data-original="#000000" opacity="1" class=""></path><path d="M0 0v0c22.091 0 40-17.909 40-40v-16h-80v16C-40-17.909-22.091 0 0 0z" style="stroke-width: 21px; stroke-linecap: round; stroke-linejoin: round; stroke-miterlimit: 10; stroke-dasharray: none; stroke-opacity: 1;" transform="translate(229.992 478)" fill="none" stroke="#353b43" stroke-width="21" stroke-linecap="round" stroke-linejoin="round" stroke-miterlimit="10" stroke-dasharray="none" stroke-opacity="" data-original="#000000" opacity="1" class=""></path><path d="M0 0v0c22.091 0 40-17.909 40-40v-40H0c-22.091 0-40 17.909-40 40v0C-40-17.909-22.091 0 0 0z" style="stroke-width: 21px; stroke-linecap: round; stroke-linejoin: round; stroke-miterlimit: 10; stroke-dasharray: none; stroke-opacity: 1;" transform="translate(149.992 502)" fill="none" stroke="#353b43" stroke-width="21" stroke-linecap="round" stroke-linejoin="round" stroke-miterlimit="10" stroke-dasharray="none" stroke-opacity="" data-original="#000000" opacity="1" class=""></path><path d="M0 0v0" style="stroke-width: 21px; stroke-linecap: round; stroke-linejoin: round; stroke-miterlimit: 10; stroke-dasharray: none; stroke-opacity: 1;" transform="translate(189.992 198.516)" fill="none" stroke="#353b43" stroke-width="21" stroke-linecap="round" stroke-linejoin="round" stroke-miterlimit="10" stroke-dasharray="none" stroke-opacity="" data-original="#000000" opacity="1" class=""></path><path d="M0 0h-59.808c-33.032 0-59.809 26.777-59.809 59.808" style="stroke-width: 21px; stroke-linecap: round; stroke-linejoin: round; stroke-miterlimit: 10; stroke-dasharray: none; stroke-opacity: 1;" transform="translate(189.992 422)" fill="none" stroke="#353b43" stroke-width="21" stroke-linecap="round" stroke-linejoin="round" stroke-miterlimit="10" stroke-dasharray="none" stroke-opacity="" data-original="#000000" opacity="1" class=""></path><path d="M0 0v0c-22.091 0-40-17.909-40-40v-40H0c22.091 0 40 17.909 40 40v0C40-17.909 22.091 0 0 0Z" style="stroke-width: 21px; stroke-linecap: round; stroke-linejoin: round; stroke-miterlimit: 10; stroke-dasharray: none; stroke-opacity: 1;" transform="translate(309.992 502)" fill="none" stroke="#353b43" stroke-width="21" stroke-linecap="round" stroke-linejoin="round" stroke-miterlimit="10" stroke-dasharray="none" stroke-opacity="" data-original="#000000" opacity="1" class=""></path><path d="M0 0h59.808c33.032 0 59.809 26.777 59.809 59.808" style="stroke-width: 21px; stroke-linecap: round; stroke-linejoin: round; stroke-miterlimit: 10; stroke-dasharray: none; stroke-opacity: 1;" transform="translate(269.992 422)" fill="none" stroke="#353b43" stroke-width="21" stroke-linecap="round" stroke-linejoin="round" stroke-miterlimit="10" stroke-dasharray="none" stroke-opacity="" data-original="#000000" opacity="1" class=""></path><path d="M0 0v0" style="stroke-width: 21px; stroke-linecap: round; stroke-linejoin: round; stroke-miterlimit: 10; stroke-dasharray: none; stroke-opacity: 1;" transform="translate(189.992 198.516)" fill="none" stroke="#353b43" stroke-width="21" stroke-linecap="round" stroke-linejoin="round" stroke-miterlimit="10" stroke-dasharray="none" stroke-opacity="" data-original="#000000" opacity="1" class=""></path><path d="M0 0c0-74.006 59.994-134 134-134S268-74.006 268 0s-59.994 134-134 134S0 74.006 0 0Z" style="stroke-width: 21px; stroke-linecap: round; stroke-linejoin: round; stroke-miterlimit: 10; stroke-dasharray: none; stroke-opacity: 1;" transform="translate(234 144)" fill="none" stroke="#353b43" stroke-width="21" stroke-linecap="round" stroke-linejoin="round" stroke-miterlimit="10" stroke-dasharray="none" stroke-opacity="" data-original="#000000" opacity="1" class=""></path><path d="m0 0-55.024-113.306" style="stroke-width: 21px; stroke-linecap: round; stroke-linejoin: round; stroke-miterlimit: 10; stroke-dasharray: none; stroke-opacity: 1;" transform="translate(396.238 200.816)" fill="none" stroke="#353b43" stroke-width="21" stroke-linecap="round" stroke-linejoin="round" stroke-miterlimit="10" stroke-dasharray="none" stroke-opacity="" data-original="#000000" opacity="1" class=""></path><path d="M0 0c-8.594 8.594-22.527 8.594-31.12 0-8.594-8.594-8.594-22.527 0-31.12 8.593-8.594 22.526-8.594 31.12 0C8.594-22.527 8.594-8.594 0 0z" style="stroke-width: 21px; stroke-linecap: round; stroke-linejoin: round; stroke-miterlimit: 10; stroke-dasharray: none; stroke-opacity: 1;" transform="translate(335.653 208.357)" fill="none" stroke="#353b43" stroke-width="21" stroke-linecap="round" stroke-linejoin="round" stroke-miterlimit="10" stroke-dasharray="none" stroke-opacity="" data-original="#000000" opacity="1" class=""></path><path d="M0 0c-8.594 8.594-22.527 8.594-31.12 0-8.594-8.594-8.594-22.527 0-31.12 8.593-8.594 22.526-8.594 31.12 0C8.594-22.527 8.594-8.594 0 0z" style="stroke-width: 21px; stroke-linecap: round; stroke-linejoin: round; stroke-miterlimit: 10; stroke-dasharray: none; stroke-opacity: 1;" transform="translate(433.246 110.763)" fill="none" stroke="#353b43" stroke-width="21" stroke-linecap="round" stroke-linejoin="round" stroke-miterlimit="10" stroke-dasharray="none" stroke-opacity="" data-original="#000000" opacity="1" class=""></path></g></g></svg>