<svg xmlns="http://www.w3.org/2000/svg" version="1.1" xmlns:xlink="http://www.w3.org/1999/xlink" width="512" height="512" x="0" y="0" viewBox="0 0 511.987 511" style="enable-background:new 0 0 512 512" xml:space="preserve" class=""><g transform="matrix(1,0,0,1,0,20)"><path d="M377.652 469.828c-4.03 0-8.148-.512-12.226-1.578L35.527 379.906c-25.449-7.02-40.617-33.344-33.96-58.773l36.265-139.07c2.219-8.536 10.945-13.72 19.52-11.434 8.535 2.219 13.675 10.965 11.437 19.52L32.52 329.241c-2.238 8.574 2.86 17.426 11.395 19.774l329.707 88.3c8.469 2.239 17.215-2.796 19.434-11.222l11.261-45.442c2.137-8.574 10.797-13.78 19.372-11.687 8.578 2.133 13.804 10.793 11.69 19.367l-11.304 45.656c-5.699 21.61-25.152 35.84-46.422 35.84zm0 0" fill="#353b43" opacity="1" data-original="#000000" class=""></path><path d="M463.988 341.828H133.32c-26.472 0-48-21.527-48-48V48.492c0-26.472 21.528-48 48-48h330.668c26.473 0 48 21.528 48 48v245.336c0 26.473-21.527 48-48 48zM133.32 32.492c-8.832 0-16 7.168-16 16v245.336c0 8.832 7.168 16 16 16h330.668c8.832 0 16-7.168 16-16V48.492c0-8.832-7.168-16-16-16zm0 0" fill="#353b43" opacity="1" data-original="#000000" class=""></path><path d="M191.988 149.828c-23.531 0-42.668-19.137-42.668-42.668s19.137-42.668 42.668-42.668 42.664 19.137 42.664 42.668-19.132 42.668-42.664 42.668zm0-53.336c-5.89 0-10.668 4.781-10.668 10.668s4.778 10.668 10.668 10.668c5.887 0 10.664-4.781 10.664-10.668s-4.777-10.668-10.664-10.668zM101.746 320.066c-4.094 0-8.191-1.558-11.305-4.691-6.25-6.25-6.25-16.387 0-22.637l96.426-96.425c14.594-14.594 38.336-14.594 52.906 0l25.793 25.792L344.796 127c7.083-8.492 17.474-13.398 28.505-13.46 11.86-.661 21.46 4.733 28.605 13.12l106.2 123.903c5.757 6.699 4.968 16.812-1.731 22.57-6.719 5.762-16.809 4.972-22.57-1.727L377.566 147.461c-1.41-1.688-3.136-1.602-4.097-1.902-.914 0-2.688.277-4.094 1.941l-90.453 108.59c-2.883 3.453-7.082 5.547-11.563 5.738-4.566.254-8.875-1.496-12.035-4.672l-38.183-38.187c-2.711-2.711-4.95-2.711-7.66 0l-96.426 96.406a15.89 15.89 0 0 1-11.309 4.691zm0 0" fill="#353b43" opacity="1" data-original="#000000" class=""></path></g></svg>