<svg xmlns="http://www.w3.org/2000/svg" version="1.1" xmlns:xlink="http://www.w3.org/1999/xlink" width="512" height="512" x="0" y="0" viewBox="0 0 1000 1000" style="enable-background:new 0 0 512 512" xml:space="preserve" class=""><g transform="matrix(1.1500000000000001,0,0,1.1500000000000001,-74.99999885559077,-74.99999313354488)"><path fill="#90a4ae" d="M884 534.86v299.49a4.42 4.42 0 0 1-4.41 4.41H120.41a4.42 4.42 0 0 1-4.41-4.41V534.86a32.51 32.51 0 0 1 32.47-32.47h703.06A32.51 32.51 0 0 1 884 534.86z" opacity="0" data-original="#90a4ae" class=""></path><path fill="#90caf9" d="M446.73 460.05v10.34H168v-10.34a70.21 70.21 0 0 1 62.48-69.94h.36a69.29 69.29 0 0 1 7.54-.41h137.97a73.15 73.15 0 0 1 7.42.38l.57.06a70.24 70.24 0 0 1 62.39 69.91zM369.78 335.62v22H245v-22c0-15.26 13.77-29.47 33.55-34.69.3-.07.6-.14.9-.23a65.78 65.78 0 0 1 15.89-1.91h24.06c27.32-.01 50.38 16.86 50.38 36.83z" opacity="0" data-original="#90caf9" class=""></path><path fill="#bdbdbd" d="M323.68 206.65v60.22c-1.42-.06-2.84-.09-4.27-.09h-24.06c-1.43 0-2.85 0-4.27.1v-60.23zM359 167.94a15.8 15.8 0 0 1-1.35 6.71H257.1a17.33 17.33 0 0 1 0-13.41h100.56a15.75 15.75 0 0 1 1.34 6.7z" opacity="0" data-original="#bdbdbd" class=""></path><path fill="#1565c0" d="M544.12 196v274.39h-43.2V253a59.3 59.3 0 0 1 43.2-57z" opacity="0" data-original="#1565c0" class=""></path><path fill="#bdbdbd" d="M766.12 227.5v65.11H705.2V227.5a20.88 20.88 0 0 1 20.86-20.85h19.21a20.87 20.87 0 0 1 20.85 20.85z" opacity="0" data-original="#bdbdbd" class=""></path><path fill="#fbc02d" d="M805.35 355.07v60.23H670.1v-60.23a30.43 30.43 0 0 1 22.81-29.5l.47-.11a30.08 30.08 0 0 1 7.18-.85h74.34a30.14 30.14 0 0 1 4.65.35l.26.05a30.62 30.62 0 0 1 25.54 30.06zM670.1 447.3h135.25v23.09H670.1z" opacity="0" data-original="#fbc02d" class=""></path><g fill="#fff" opacity=".5"><path d="M874 544.86v299.49a4.42 4.42 0 0 1-4.41 4.41H110.41a4.42 4.42 0 0 1-4.41-4.41V544.86a32.51 32.51 0 0 1 32.47-32.47h703.06A32.51 32.51 0 0 1 874 544.86zM436.73 470.05v10.34H158v-10.34a70.21 70.21 0 0 1 62.48-69.94h.36a69.29 69.29 0 0 1 7.54-.41h137.97a73.15 73.15 0 0 1 7.42.38l.57.06a70.24 70.24 0 0 1 62.39 69.91zM359.78 345.62v22H235v-22c0-15.26 13.77-29.47 33.55-34.69.3-.07.6-.14.9-.23a65.78 65.78 0 0 1 15.89-1.91h24.06c27.32-.01 50.38 16.86 50.38 36.83zM313.68 216.65v60.22c-1.42-.06-2.84-.09-4.27-.09h-24.06c-1.43 0-2.85 0-4.27.1v-60.23zM349 177.94a15.8 15.8 0 0 1-1.35 6.71H247.1a17.33 17.33 0 0 1 0-13.41h100.56a15.75 15.75 0 0 1 1.34 6.7zM534.12 206v274.39h-43.2V263a59.3 59.3 0 0 1 43.2-57zM756.12 237.5v65.11H695.2V237.5a20.88 20.88 0 0 1 20.86-20.85h19.21a20.87 20.87 0 0 1 20.85 20.85zM795.35 365.07v60.23H660.1v-60.23a30.43 30.43 0 0 1 22.81-29.5l.47-.11a30.08 30.08 0 0 1 7.18-.85h74.34a30.14 30.14 0 0 1 4.65.35l.26.05a30.62 30.62 0 0 1 25.54 30.06zM660.1 457.3h135.25v23.09H660.1z" fill="#ffffff" opacity="0" data-original="#ffffff" class=""></path></g><g fill="#413b32"><path d="M851.53 470.39H148.47A63.66 63.66 0 0 0 136 471.6a64.55 64.55 0 0 0-52 63.26v299.49a36.45 36.45 0 0 0 36.41 36.41h759.18A36.45 36.45 0 0 0 916 834.35V534.86a64.54 64.54 0 0 0-64.47-64.47zm32.47 364a4.42 4.42 0 0 1-4.41 4.41H120.41a4.42 4.42 0 0 1-4.41-4.41V534.86a32.51 32.51 0 0 1 32.47-32.47h703.06A32.51 32.51 0 0 1 884 534.86zM482.64 502.23l-.58-.1a15 15 0 0 1-1.9-.46l-.41-.14a4.84 4.84 0 0 1-.6-.22.85.85 0 0 1-.17-.06c-.28-.11-.56-.24-.84-.37l-.51-.25c-.19-.09-.38-.2-.57-.31a2.88 2.88 0 0 1-.38-.22 15.26 15.26 0 0 1-1.45-1 13.06 13.06 0 0 1-1.07-.9c-.12-.1-.23-.21-.34-.32l-.54.51c-.19.16-.37.32-.57.47s-.45.36-.69.53-.34.24-.52.35l-.64.4c-.27.16-.54.32-.82.45l-.51.25a14.42 14.42 0 0 1-2.13.82l-.75.21c-.32.08-.65.15-1 .21s-.88.15-1.33.19-1.05.08-1.59.08h22.19a15.69 15.69 0 0 1-2.28-.12zm61.48-15.84v-16h-43.2v16a16 16 0 0 1-16 16h75.2a16 16 0 0 1-16-16zm261.23 0v-16H670.1v16a16 16 0 0 1-16 16h167.25a16 16 0 0 1-16-16z" fill="#353b43" opacity="1" data-original="#413b32" class=""></path><path d="M478.73 460.05v26.34a15.89 15.89 0 0 1-4.91 11.52l-.54.51c-.19.16-.37.32-.57.47s-.45.36-.69.53-.34.24-.52.35l-.64.4c-.27.16-.54.32-.82.45l-.51.25a14.42 14.42 0 0 1-2.13.82l-.75.21c-.32.08-.65.15-1 .21s-.88.15-1.33.19-1.05.08-1.59.08a16 16 0 0 1-16-16v-26.33a70.24 70.24 0 0 0-62.39-69.95H383.77a73.15 73.15 0 0 0-7.42-.38H238.42a69.29 69.29 0 0 0-7.54.41h-.36A70.21 70.21 0 0 0 168 460.05v26.34a16 16 0 0 1-32 0v-26.34a102.37 102.37 0 0 1 102.42-102.39h137.93a103.2 103.2 0 0 1 25.43 3.17 102.22 102.22 0 0 1 77 99.22z" fill="#353b43" opacity="1" data-original="#413b32" class=""></path><path d="M401.78 335.62v38.55a16 16 0 0 1-16 16 13.62 13.62 0 0 1-1.44-.07H383.77a16 16 0 0 1-14-15.87v-38.61c0-20-23.06-36.84-50.37-36.84h-24.05a65.78 65.78 0 0 0-15.89 1.91l-.42.1-.48.13c-19.81 5.23-33.56 19.44-33.56 34.7v38.56a16 16 0 0 1-14.1 15.89h-.36c-.51.05-1 .07-1.54.07a16 16 0 0 1-16-16v-38.52c0-26.83 18.07-50.53 46.1-61.89a94.25 94.25 0 0 1 12-3.94 96.61 96.61 0 0 1 20-2.91c1.42-.07 2.84-.1 4.27-.1h24.06c1.43 0 2.85 0 4.27.09a95.41 95.41 0 0 1 32 6.87 83.51 83.51 0 0 1 20.63 12c16.41 13.08 25.45 30.79 25.45 49.88z" fill="#353b43" opacity="1" data-original="#413b32" class=""></path><path d="M291.08 190.65v94.65a16 16 0 0 1-11.62 15.39c-.3.09-.6.16-.9.23a16.35 16.35 0 0 1-3.45.37 16 16 0 0 1-16-16v-94.64a16 16 0 0 1 32 0zM355.68 190.65v94.63a16 16 0 0 1-32 0v-94.63a16 16 0 0 1 32 0z" fill="#353b43" opacity="1" data-original="#413b32" class=""></path><path d="M360.36 129.24h-106c-17.18 0-30.65 17-30.65 38.7s13.47 38.71 30.65 38.71h106c17.19 0 30.65-17 30.65-38.71s-13.46-38.7-30.65-38.7zm-2.7 45.41H257.1a17.33 17.33 0 0 1 0-13.41h100.56a17.33 17.33 0 0 1 0 13.41zM576.12 177.83v308.56a16 16 0 0 1-32 0V196a59.3 59.3 0 0 0-43.2 57v233.39a16 16 0 0 1-16 16 15.69 15.69 0 0 1-2.28-.16l-.58-.1a15 15 0 0 1-1.9-.46l-.41-.14a4.84 4.84 0 0 1-.6-.22.85.85 0 0 1-.17-.06c-.28-.11-.56-.24-.84-.37l-.51-.25c-.19-.09-.38-.2-.57-.31a2.88 2.88 0 0 1-.38-.22 15.26 15.26 0 0 1-1.45-1c-.37-.29-.73-.59-1.07-.9-.12-.1-.23-.21-.34-.32a15.92 15.92 0 0 1-4.9-11.52V253a91.23 91.23 0 0 1 91.2-91.21 16 16 0 0 1 16 16.04z" fill="#353b43" opacity="1" data-original="#413b32" class=""></path><path d="M617.07 193.83h-57a16 16 0 0 1 0-32h57a16 16 0 0 1 0 32zM617.07 274.66h-57a16 16 0 1 1 0-32h57a16 16 0 0 1 0 32zM617.07 355.48h-57a16 16 0 0 1 0-32h57a16 16 0 0 1 0 32zM617.07 436.31h-57a16 16 0 0 1 0-32h57a16 16 0 0 1 0 32zM837.35 355.07v131.32a16 16 0 0 1-32 0V355.07A30.62 30.62 0 0 0 779.81 325l-.26-.05a30.14 30.14 0 0 0-4.65-.35h-74.34a30.08 30.08 0 0 0-7.18.85l-.47.11a30.43 30.43 0 0 0-22.81 29.5v131.33a16 16 0 0 1-32 0V355.07a62.4 62.4 0 0 1 62.46-62.46h74.34a62.55 62.55 0 0 1 23.22 4.47 62.47 62.47 0 0 1 39.23 58z" fill="#353b43" opacity="1" data-original="#413b32" class=""></path><path d="M798.12 227.5v81.67a16 16 0 0 1-16 16 17.69 17.69 0 0 1-2.31-.16l-.26-.05a16 16 0 0 1-13.43-15.79V227.5a20.87 20.87 0 0 0-20.85-20.85h-19.21a20.88 20.88 0 0 0-20.86 20.85V310a16 16 0 0 1-11.82 15.45l-.47.11a15.64 15.64 0 0 1-3.71.44 16 16 0 0 1-16-16v-82.5a52.91 52.91 0 0 1 52.86-52.85h19.21a52.91 52.91 0 0 1 52.85 52.85zM837.35 431.3a16 16 0 0 1-16 16H654.11a16 16 0 0 1 0-32h167.24a16 16 0 0 1 16 16z" fill="#353b43" opacity="1" data-original="#413b32" class=""></path></g></g></svg>