<svg xmlns="http://www.w3.org/2000/svg" version="1.1" xmlns:xlink="http://www.w3.org/1999/xlink" width="512" height="512" x="0" y="0" viewBox="0 0 48 48" style="enable-background:new 0 0 512 512" xml:space="preserve" class=""><g><path d="M21.93 39H7a3 3 0 0 1-3-3V15h33v6.32a1 1 0 0 0 2 0V10a5.006 5.006 0 0 0-5-5h-2a3 3 0 0 0-6 0H15a3 3 0 0 0-6 0H7a5.006 5.006 0 0 0-5 5v26a5.006 5.006 0 0 0 5 5h14.93a1 1 0 0 0 0-2ZM28 5a1 1 0 0 1 2 0v2a1 1 0 0 1-2 0ZM11 5a1 1 0 0 1 2 0v2a1 1 0 0 1-2 0Zm-7 5a3 3 0 0 1 3-3h2a3 3 0 0 0 6 0h11a3 3 0 0 0 6 0h2a3 3 0 0 1 3 3v3H4Z" fill="#0056d0" opacity="1" data-original="#000000"></path><path d="M14 20a2 2 0 0 0-2-2H9a2 2 0 0 0-2 2v3a2 2 0 0 0 2 2h3a2 2 0 0 0 2-2Zm-5 3v-3h3v3ZM24 20a2 2 0 0 0-2-2h-3a2 2 0 0 0-2 2v3a2 2 0 0 0 2 2h3a2 2 0 0 0 2-2Zm-5 3v-3h3v3ZM33 22.14a1 1 0 0 0 1-1V20a2 2 0 0 0-2-2h-3a2 2 0 0 0-2 2v2.88a1 1 0 0 0 2 0V20h3v1.14a1 1 0 0 0 1 1ZM12 28H9a2 2 0 0 0-2 2v3a2 2 0 0 0 2 2h3a2 2 0 0 0 2-2v-3a2 2 0 0 0-2-2Zm-3 5v-3h3v3ZM22.69 28.131A1.856 1.856 0 0 0 22 28h-3a2 2 0 0 0-2 2v3a2 2 0 0 0 2 2h2.04a1 1 0 0 0 0-2H19v-3l2.95-.011a1 1 0 0 0 .74-1.858ZM35 24a11 11 0 1 0 11 11 11.013 11.013 0 0 0-11-11Zm0 20a9 9 0 1 1 9-9 9.01 9.01 0 0 1-9 9Z" fill="#0056d0" opacity="1" data-original="#000000"></path><path d="M36 34.586V30a1 1 0 0 0-2 0v5a1 1 0 0 0 .293.707l2 2a1 1 0 0 0 1.414-1.414Z" fill="#0056d0" opacity="1" data-original="#000000"></path></g></svg>