<svg xmlns="http://www.w3.org/2000/svg" version="1.1" xmlns:xlink="http://www.w3.org/1999/xlink" width="512" height="512" x="0" y="0" viewBox="0 0 511.999 512" style="enable-background:new 0 0 512 512" xml:space="preserve" class=""><g><path d="M506.252 12.1C500.627 4.297 491.611 0 480.863 0c-5.046 0-10.456.951-16.077 2.826L29.358 147.968c-15.04 5.013-25.406 15.258-28.441 28.11-3.035 12.853 1.654 26.655 12.865 37.869a15.001 15.001 0 0 0 3.734 2.728l183.321 94.497 94.501 183.322a15.007 15.007 0 0 0 2.726 3.733c9.009 9.01 19.399 13.773 30.049 13.774h.003c16.128 0 29.896-11.248 35.927-29.349L509.188 47.225c4.563-13.694 3.52-26.168-2.936-35.125zM30.114 182.973c.574-2.433 3.92-4.94 8.73-6.544L452.129 38.667 209.112 281.684l-175.54-90.485c-2.644-3.09-3.951-6.138-3.458-8.226zm305.468 290.193c-1.424 4.271-4.132 8.834-7.466 8.834-2.02 0-4.664-1.307-7.303-3.564l-90.488-175.539L473.349 59.874z" fill="#ffffff" opacity="1" data-original="#000000" class=""></path></g></svg>