<svg xmlns="http://www.w3.org/2000/svg" version="1.1" xmlns:xlink="http://www.w3.org/1999/xlink" width="512" height="512" x="0" y="0" viewBox="0 0 64 64" style="enable-background:new 0 0 512 512" xml:space="preserve"><g><path d="M15.647 43.838a.994.994 0 0 0-1.078.915c-.266 3.249-.434 6.908-.515 11.187-.01.552.429 1.008.981 1.019h.02c.543 0 .989-.436 1-.981.08-4.237.247-7.855.508-11.062a1.002 1.002 0 0 0-.916-1.078zM16.732 35.926a1 1 0 0 0-1.162.807c-.146.81-.28 1.652-.404 2.53a1 1 0 0 0 1.981.28c.12-.852.251-1.67.393-2.455a1.002 1.002 0 0 0-.808-1.162z" fill="#0056d0" opacity="1" data-original="#000000"></path><path d="M31.378 36.258c-1.078-.945-1.908-1.801-1.026-3.234.829-1.345.912-2.602.012-3.916-.518-.756-.462-1.364-.026-2.045 1.317-2.06.553-4.019-1.337-5.562V16a1 1 0 0 0-1-1v-1c0-1.654 1.346-3 3-3h6a1 1 0 0 0 1-1V5a1 1 0 0 0-1-1H21.485c-1.87 0-3.627.728-4.95 2.05l-4.243 4.243C11.664 10.922 12.111 12 13 12h2c1.654 0 3 1.346 3 3a1 1 0 0 0-1 1v2c0 1.322 2 1.324 2 0v-1h8v4h-9a.997.997 0 0 0-.819.427C12.013 28.817 10 39.487 10 59.482 10 61.4 11.554 63 13.509 63h21.093c1.811 0 3.443-1.329 3.398-3.569-.344-17.671-4.274-21.115-6.622-23.173zM36 9h-2V6h2zm-20.602 1.016 2.551-2.551A4.968 4.968 0 0 1 21.485 6H32v3h-1c-2.757 0-5 2.243-5 5v1h-6a5.006 5.006 0 0 0-4.602-4.984zM34.602 61H13.509A1.517 1.517 0 0 1 12 59.482C12 40.333 13.836 30.011 18.527 23h9.143c1.096.877 1.737 1.804.982 2.985-.964 1.507-.812 2.978.061 4.253.447.654.348 1.067-.065 1.738C28.375 32.42 28 33.029 28 34c0 1.958 1 2.834 2.06 3.762 2.1 1.84 5.614 4.92 5.94 21.709.022 1.019-.597 1.529-1.398 1.529z" fill="#0056d0" opacity="1" data-original="#000000"></path><path d="M40.582 19.187c-.047-.034-4.72-3.401-6.26-6.619-.57-1.193-2.376-.33-1.804.863 1.263 2.641 4.153 5.212 5.766 6.512l-1.254.836c-1.371-1.048-4.949-4.005-6.09-7.123-.456-1.246-2.332-.552-1.878.688 1.631 4.455 7.135 8.315 7.369 8.478a1 1 0 0 0 1.125.011l3-2c.58-.388.594-1.24.026-1.646z" fill="#0056d0" opacity="1" data-original="#000000"></path><circle cx="41.25" cy="7" r="1.25" fill="#0056d0" opacity="1" data-original="#000000"></circle><path d="M44.833 4.166a1.083 1.083 0 1 0 0 2.167 1.083 1.083 0 0 0 0-2.167zM48.417 4.417a.917.917 0 1 0-.001-1.833.917.917 0 0 0 .001 1.833z" fill="#0056d0" opacity="1" data-original="#000000"></path><circle cx="52" cy="1.75" r=".75" fill="#0056d0" opacity="1" data-original="#000000"></circle><path d="M44.833 7.642a1.083 1.083 0 1 0-.001 2.165 1.083 1.083 0 0 0 .001-2.165zM48.417 9.559a.917.917 0 1 0 0 1.834.917.917 0 0 0 0-1.834z" fill="#0056d0" opacity="1" data-original="#000000"></path><circle cx="52" cy="12.225" r=".75" fill="#0056d0" opacity="1" data-original="#000000"></circle><circle cx="52.25" cy="7" r=".75" fill="#0056d0" opacity="1" data-original="#000000"></circle><circle cx="48.625" cy="7" r=".916" fill="#0056d0" opacity="1" data-original="#000000"></circle></g></svg>